# xmcd CD database file
#
# Track frame offsets:
#	150
#	11500
#	23275
#	47425
#	66705
#	85925
#	115100
#	131795
#	146892
#	193712
#	202225
#	216447
#	239997
#
# Disc length: 3520 seconds
#
# Revision: 0
# Processed by: cddbd v1.4PL0 Copyright (c) Steve Scherf et al.
# Submitted via: CDex 1.40Beta9
#
DISCID=cb0dbe0d
DTITLE=Chief Jim Billie - Seminole Fire
DYEAR=2000
DGENRE=Native American
TTITLE0=Introduction - Chief's guitar
TTITLE1=Bashful Star - Star song
TTITLE2=Legend of Kissimmee River - The Snake
TTITLE3=Dear and the Rabbit - The Trade
TTITLE4=Counting Story - Body Part Names - Grandma's Song
TTITLE5=The Lion in Africa - Trickster Rabbit
TTITLE6=The Dog and the Alligator - The Traders
TTITLE7=Colors of Man - The River
TTITLE8=How the Possum Became a Marsupial - ChukBlubashees
TTITLE9=Green Corn Dance - Spring
TTITLE10=Revenge of the Dead - Dark Woman
TTITLE11=How the Raccoon Got Its Mask - Raccoon's song
TTITLE12=The Sun in the Sky
EXTD=YEAR: 2000 ID3G: 64
EXTT0=
EXTT1=
EXTT2=
EXTT3=
EXTT4=
EXTT5=
EXTT6=
EXTT7=
EXTT8=
EXTT9=
EXTT10=
EXTT11=
EXTT12=
PLAYORDER=
